# xmcd
#
# Track frame offsets: 
#        150
#        35287
#        67650
#        100212
#        171075
#        199512
#        229200
#
# Disc length: 3444 seconds
#
# Revision: 0
# Processed by: cddbd v1.5.2PL0 Copyright (c) Steve Scherf et al.
# Submitted via: ExactAudioCopy v0.95b4
#
DISCID=4e0d7207
DTITLE=Eric Clapton - 1990-02-24 - Brussels Affair
DYEAR=1990
DGENRE=Blues
TTITLE0=Intro and Pretending
TTITLE1=Running On Faith
TTITLE2=Breaking Point
TTITLE3=I Shot The Sheriff and White Room
TTITLE4=Can't Find My Way Home
TTITLE5=Bad Love
TTITLE6=Before You Accuse Me
EXTD=
EXTT0=
EXTT1=
EXTT2=
EXTT3=
EXTT4=
EXTT5=
EXTT6=
PLAYORDER=
